<svg width="202" height="98" viewBox="0 0 202 98" fill="none" xmlns="http://www.w3.org/2000/svg">
<g clip-path="url(#clip0_623_130)">
<path d="M100.763 93.0357V97.1075H79.0591C64.5014 97.1075 61.206 93.1318 46.7809 72.1621C38.8078 60.8545 32.9082 52.9866 32.9082 52.9866L51.8629 29.95C51.8629 29.95 75.5261 4.64512 51.0452 4.09663V0H96.3722V4.48398C86.23 5.16572 77.1214 4.86824 47.8794 42.4414C52.5016 48.5553 60.9067 59.708 72.8941 74.9262C83.6196 88.9732 91.9599 93.8538 100.76 93.0357H100.763Z" fill="white"/>
<path d="M94.1284 37.7848C96.1648 10.4222 121.645 7.77585 120.8 39.9167H103.666V44.974H137.552C137.69 22.1048 126.4 13.4467 109.297 12.9788C92.0579 12.486 77.0096 25.1261 76.1333 43.812C74.1246 79.4204 122.269 94.2142 136.024 61.2335C136.024 61.2335 133.722 61.0414 130.76 60.7904C120.822 75.3114 91.6815 70.7778 94.1253 37.7879L94.1284 37.7848Z" fill="white"/>
<path d="M41.4917 0V4.07494C35.444 4.07494 29.677 5.34546 29.677 15.4166V79.3358C29.677 88.7191 34.074 93.3332 39.9828 93.3332V97.1106H0V93.3332C5.77002 93.3332 9.79052 88.7098 9.79052 79.3358V15.4135C9.75966 6.85148 5.91504 4.07494 0.00925671 4.07494V0H41.4917Z" fill="white"/>
<path d="M171.296 0V3.48926C171.296 3.48926 177.483 2.76724 178.708 7.01881C179.683 10.3965 178.84 16.3555 177.399 20.5141L173.897 30.6256L178.485 39.9685L184.792 24.1119C184.792 24.1119 192.084 2.78893 201.997 3.47067V0H171.293H171.296Z" fill="#2F85FF"/>
<path d="M167.248 26.343L160.065 10.9388C160.065 10.9388 156.458 3.31883 163.672 3.31883V0H130.928V3.31883C134.55 2.54723 138.21 4.4499 139.675 7.86789C139.675 7.86789 155.693 45.8098 164.301 65.7135L159.031 80.061C156.813 85.9115 154.69 87.9536 154.134 86.2803C153.971 83.4139 152.329 80.845 149.802 79.5032C144.936 77.3154 139.225 79.5032 137.046 84.3869C137.04 84.3993 137.037 84.4086 137.031 84.4179C134.927 89.3202 137.099 95.0096 141.928 97.2439C145.498 98.626 149.524 98.0806 152.601 95.7936C157.467 91.7466 160.108 87.7088 162.987 80.3399L176.165 45.4875L167.248 26.343Z" fill="white"/>
</g>
<defs>
<clipPath id="clip0_623_130">
<rect width="202" height="98" fill="white"/>
</clipPath>
</defs>
</svg>
