<svg width="1002" height="610" xmlns="http://www.w3.org/2000/svg" xmlns:xlink="http://www.w3.org/1999/xlink" overflow="hidden"><defs><clipPath id="clip0"><path d="M139 55 1141 55 1141 665 139 665Z" fill-rule="evenodd" clip-rule="evenodd"/></clipPath></defs><g clip-path="url(#clip0)" transform="translate(-139 -55)"><path d="M632 55 632 564 1139.99 564 1140 55ZM668.489 91.4768 813.561 91.4768 958.782 273.43 958.782 91.4768 1103.73 91.4768 1103.74 527.715 958.782 527.715 813.561 346.064 813.561 527.715 668.449 527.715Z" fill="#FFFFFF" fill-rule="evenodd"/><path d="M588.989 197.696 462.531 269.833C444.001 240.176 417.621 228.826 393.041 228.621 348.278 228.247 309.675 264.081 309.699 309.791 309.676 356.814 348.403 390.923 390.764 391.64 416.086 392.065 446.897 378.001 462.55 350.115L589 422.44C543.032 501.452 464.227 537.127 390.59 537 273.829 536.809 163.984 443.722 164 309.99 163.996 176.959 274.284 82.2558 391.03 83.0044 466.743 83.4958 543.935 119.016 588.993 197.692Z" fill="#FFFFFF" fill-rule="evenodd"/><path d="M181.053 601.262C189 603.483 195.682 609.013 200 615.939L183.365 625.4C180.464 621.383 175.689 618.499 170.563 619.263 165.499 619.752 161.062 623.582 159.731 628.451 157.679 637.093 163.899 644.269 171.506 644.641 175.76 644.767 180.299 642.899 183.365 638.393L200 647.943C194.509 656.971 184.785 663.092 174.183 663.983 154.525 664.584 137.576 649.615 140.286 626.821 143.938 607.057 162.432 596.127 181.053 601.263Z" fill="#FFFFFF" fill-rule="evenodd"/><path d="M442.199 600.08C436.021 599.646 429.665 600.974 423.954 604.28 408.721 613.097 403.455 632.869 412.286 648.074 421.118 663.278 440.927 668.539 456.159 659.722 470.731 651.289 476.039 632.867 468.753 617.97 468.522 617.263 468.214 616.582 467.836 615.942 467.834 615.937 467.832 615.933 467.83 615.928 467.829 615.926 467.827 615.924 467.826 615.924 467.448 615.259 466.999 614.638 466.482 614.073 460.806 605.759 451.769 600.751 442.199 600.079ZM440.871 620.4C444.566 620.636 448.039 622.674 450.085 626.194 450.085 626.195 450.086 626.195 450.086 626.195 450.086 626.196 450.087 626.198 450.087 626.199 453.357 631.832 451.513 638.745 445.87 642.01 440.228 645.276 433.3 643.437 430.028 637.804 426.756 632.171 428.6 625.258 434.242 621.992L434.242 621.99C436.358 620.765 438.655 620.259 440.871 620.401Z" fill="#FFFFFF" fill-rule="evenodd"/><path d="M961.734 600.08C955.458 599.646 949.003 600.974 943.202 604.28 927.733 613.097 922.383 632.869 931.353 648.074 940.323 663.278 960.442 668.539 975.912 659.722 990.713 651.288 996.103 632.862 988.7 617.964 988.466 617.259 988.155 616.58 987.771 615.942 987.771 615.937 987.771 615.933 987.764 615.928 987.764 615.926 987.764 615.924 987.764 615.924 987.381 615.258 986.922 614.637 986.398 614.071 980.633 605.758 971.453 600.751 961.735 600.079ZM960.385 620.4C964.137 620.636 967.665 622.674 969.743 626.194 969.743 626.195 969.743 626.195 969.743 626.195 969.743 626.196 969.743 626.198 969.743 626.199 973.062 631.832 971.191 638.745 965.461 642.01L965.461 642.01C959.729 645.276 952.696 643.437 949.373 637.804 946.05 632.171 947.921 625.258 953.651 621.992L953.651 621.99C955.8 620.765 958.132 620.259 960.384 620.401Z" fill="#FFFFFF" fill-rule="evenodd"/><path d="M251.816 601 221.184 601 202 663 223.56 663 226.712 652.603 246.353 652.603 249.445 663 271 663ZM236.505 618.104 241.983 637.345 231.013 637.345Z" fill="#FFFFFF" fill-rule="evenodd"/><path d="M278 601 278 663 298.412 663 298.412 644.874 305.064 644.874 314.212 663 336.918 663 325.02 642.663C334.183 636.753 337.32 629.431 336.975 622.069 336.982 610.957 327.031 601.311 316.151 601ZM311.993 619.082C314.623 619.117 316.542 621.691 316.657 623.892 316.724 627.041 314.343 629.402 311.974 629.459L298.412 629.479 298.412 619.082Z" fill="#FFFFFF" fill-rule="evenodd"/><path d="M343 619.102 343 601 405 601 405 619.102 385.601 619.102 385.601 663 362.413 663 362.413 619.102Z" fill="#FFFFFF" fill-rule="evenodd"/><path d="M549 601 569.496 601 590.491 626.783 590.491 601 611 601 611 663 590.491 663 569.496 637.162 569.496 663 549 663Z" fill="#FFFFFF" fill-rule="evenodd"/><path d="M653 601 673.494 601 694.492 626.783 694.492 601 715 601 715 663 694.492 663 673.494 637.162 673.494 663 653 663Z" fill="#FFFFFF" fill-rule="evenodd"/><path d="M724.001 601 778 601 778 619.088 744.453 619.088 744.453 625.435 772.699 625.435 772.699 639.919 744.453 639.919 744.453 646.444 778 646.444 777.999 663 724 663Z" fill="#FFFFFF" fill-rule="evenodd"/><path d="M785 619.102 785 601 847 601 847 619.102 827.601 619.102 827.601 663 804.413 663 804.413 619.102Z" fill="#FFFFFF" fill-rule="evenodd"/><path d="M852 601 872.93 601C872.93 601 878.164 628.073 878.187 628.185L888.501 603.219 899.005 628.128 904.261 601 925 601 913.142 663 895.885 663 888.499 646.263 881.026 663 864.057 663C864.057 663 852.224 602.4 852 601Z" fill="#FFFFFF" fill-rule="evenodd"/><path d="M998 601 998 663 1018.41 663 1018.45 644.874 1025.06 644.874 1034.21 663 1056.91 663 1045.02 642.663C1054.18 636.753 1057.32 629.431 1056.97 622.069 1056.98 610.957 1047.03 601.311 1036.15 601ZM1031.99 619.082C1034.62 619.117 1036.54 621.691 1036.65 623.892 1036.72 627.041 1034.34 629.402 1031.97 629.459L1018.41 629.479 1018.41 619.082Z" fill="#FFFFFF" fill-rule="evenodd"/><path d="M1064 663 1064 601 1084.86 601 1084.86 621.086 1100.41 601 1127 601 1102.87 630.558 1127 663 1100.41 663 1084.86 639.927 1084.86 663Z" fill="#FFFFFF" fill-rule="evenodd"/><path d="M512.2 600.08C506.021 599.646 499.666 600.974 493.954 604.28 478.722 613.097 473.454 632.869 482.286 648.074 491.118 663.278 510.926 668.539 526.159 659.722 540.731 651.289 546.039 632.867 538.754 617.97 538.522 617.263 538.215 616.582 537.837 615.942 537.835 615.937 537.833 615.933 537.831 615.928 537.83 615.926 537.828 615.924 537.827 615.924 537.449 615.258 536.998 614.637 536.482 614.071 530.805 605.758 521.768 600.751 512.2 600.079ZM510.872 620.4C514.566 620.636 518.039 622.674 520.084 626.194 520.084 626.195 520.084 626.195 520.086 626.195 520.086 626.196 520.086 626.198 520.087 626.199 523.356 631.832 521.514 638.745 515.871 642.01 510.228 645.276 503.301 643.437 500.029 637.804 496.757 632.171 498.599 625.258 504.241 621.992L504.241 621.99C506.357 620.765 508.655 620.259 510.872 620.401Z" fill="#FFFFFF" fill-rule="evenodd"/></g></svg>