<svg fill="none" height="85" viewBox="0 0 494 85" width="494" xmlns="http://www.w3.org/2000/svg" xmlns:xlink="http://www.w3.org/1999/xlink"><clipPath id="a"><path d="m0 0h494v85h-494z"/></clipPath><g clip-path="url(#a)"><path d="m158.416 31.8848v-8.6171h-28.384v61.1323h29.08v-24.5453s.012-.8993.067-1.5399c.099-.5851.315-1.6199.752-2.8025.012-.0246.025-.0678.043-.0924.012-.0554.043-.0924.056-.1478.936-2.4207 2.79-5.4203 6.412-6.646.012 0 .012-.0124.024-.0124.013 0 .043-.0123.056-.0123 1.62-.7514 3.431-1.1703 5.322-1.1703 2.981 0 5.747 1.0348 7.921 2.7779v-29.2018c-6.357-.2833-15.313 3.1475-21.343 10.8776zm61.423-13.4214c-19.828 0-36.033 14.8442-36.033 33.0083 0 .2957 0 .616.024.9362.136 4.0961 1.072 8.0135 2.735 11.5982 5.414 11.9493 18.3 20.3877 33.274 20.3877 19.828 0 35.985-14.8134 35.985-32.9282 0-18.1149-16.157-33.0084-35.985-33.0084zm-.024 42.0935c-5.008 0-9.055-4.0468-9.055-9.0544s4.047-9.0851 9.055-9.0851c5.007 0 9.054 4.0714 9.054 9.0851 0 5.0138-4.047 9.0544-9.054 9.0544zm130.478-42.0381c-19.803 0-36.009 14.7888-36.009 32.9529s16.212 32.9283 36.009 32.9283 36.034-14.7888 36.034-32.9283-16.181-32.9529-36.034-32.9529zm0 42.0381c-4.983 0-9.054-4.0468-9.054-9.0544s4.071-9.0851 9.054-9.0851c4.984 0 9.086 4.0714 9.086 9.0851 0 5.0138-4.072 9.0544-9.086 9.0544zm-90.423-9.0975c0 18.1025 14.931 32.9406 33.232 32.9406 6.233 0 12.14-1.7555 17.142-4.7366v-22.0384c-2.162 1.9587-5.39 3.2152-8.999 3.2152-6.505 0-11.79-4.0591-11.79-9.0543 0-4.9953 5.279-9.0667 11.79-9.0667 3.609 0 6.831 1.2503 8.999 3.2152v-22.6667c-4.996-3.0366-10.903-4.8043-17.142-4.8043-18.294 0-33.232 14.838-33.232 32.996zm227.813-24.9518c-8.155-8.0442-23.332-7.3359-33.459 6.1533-6.48-13.0272-23.93-17.1109-34.906-1.349-.025.0247-.068.0678-.092.1109v-7.9641h-28.877v60.9413h28.532v-36.1435c0-2.5746 2.094-4.6565 4.656-4.6565.351 0 .709.0431 1.047.1232l.395.0924c.831.2463 1.595.7206 2.149 1.4721.068.0924.148.1909.216.3018.53.7514.844 1.6753.844 2.667v36.1435h28.081v-36.1435c0-2.5746 2.095-4.6565 4.657-4.6565 1.281 0 2.439.5174 3.283 1.3612.844.8439 1.374 2.0018 1.374 3.2953v36.1435h27.798v-45.0993s-.45-7.2989-5.704-12.7931zm-394.0355-25.91269h-15.516l-21.4355 39.49419v44.3109h29.0734v-25.346h7.8781c6.7815 0 12.6455-1.2874 17.4685-3.8312 4.848-2.5746 8.599-6.1101 11.118-10.5264 1.232-2.199 2.199-4.5272 2.815-6.991.616-2.4391.936-5.0384.936-7.6869 0-8.8696-2.864-16.0761-8.469-21.40403-5.574-5.30326-13.613-8.013401-23.8747-8.013401zm7.2315 31.88119c-.376 2.7347-2.0882 4.3116-4.7677 4.8228-.9917.2156-1.9834.2956-2.9751.3203h-7.9582v-15.2446h1.503c1.8479 0 3.6711-.0246 5.4943 0 1.2073.0247 2.4392.0555 3.6157.271 3.3509.616 5.008 2.4392 5.279 5.8946.08 1.2873.024 2.6547-.191 3.9359z" fill="#005cb9"/><path d="m67.3604.59491h-21.3431l-45.408535 83.80509h21.349135z" fill="#000"/></g></svg>