<svg width="267" height="51" viewBox="0 0 267 51" fill="none" xmlns="http://www.w3.org/2000/svg">
<path d="M65.0303 33.1341C66.3814 33.9286 68.689 34.8239 70.895 34.8239C74.0515 34.8239 75.5581 33.2823 75.5581 31.2427C75.5581 29.2031 74.3086 28.0647 71.0983 26.873C66.6863 25.284 64.6358 22.9479 64.6358 20.0664C64.6358 16.1888 67.8401 13.0108 73.0053 13.0108C75.4624 13.0108 77.6146 13.6571 78.9178 14.5049L77.8657 17.6829C76.9151 17.0841 75.1575 16.2421 72.9037 16.2421C70.2972 16.2421 68.8923 17.7303 68.8923 19.5209C68.8923 21.5072 70.2972 22.4025 73.4537 23.6476C77.6086 25.1891 79.8146 27.2762 79.8146 30.8514C79.8146 35.1263 76.4548 38.1086 70.7934 38.1086C68.139 38.1086 65.682 37.4149 63.9781 36.4188L65.0303 33.14V33.1341Z" fill="white"/>
<path d="M85.47 2.27322H89.882V17.3331H89.9836C90.6831 16.088 91.7891 14.9496 93.1401 14.2025C94.4434 13.4555 95.9978 13.0108 97.6478 13.0108C100.906 13.0108 106.119 14.997 106.119 23.2503V37.5631H101.707V23.7484C101.707 19.8707 100.254 16.6394 96.0934 16.6394C93.2358 16.6394 91.0358 18.6256 90.1809 20.9617C89.9298 21.608 89.882 22.2542 89.882 23.0487V37.5572H85.47V2.27322Z" fill="white"/>
<path d="M135.227 25.3314C135.227 34.2251 128.962 38.1027 123.151 38.1027C116.635 38.1027 111.529 33.3298 111.529 25.7287C111.529 17.7303 116.892 13.0049 123.558 13.0049C130.223 13.0049 135.233 18.0268 135.233 25.3314M116.043 25.5805C116.043 30.8455 119.05 34.8239 123.36 34.8239C127.671 34.8239 130.726 30.8989 130.726 25.4797C130.726 21.4064 128.669 16.2837 123.462 16.2837C118.255 16.2837 116.043 21.0566 116.043 25.5745" fill="white"/>
<path d="M140.787 21.359C140.787 18.2758 140.685 15.7915 140.59 13.5088H144.499L144.751 17.6296H144.852C146.604 14.7006 149.509 13.0108 153.467 13.0108C159.379 13.0108 163.791 17.9319 163.791 25.1832C163.791 33.8278 158.429 38.1027 152.72 38.1027C149.515 38.1027 146.705 36.7094 145.253 34.3259H145.151V47.3936H140.793V21.353L140.787 21.359ZM145.145 27.7683C145.145 28.4146 145.193 29.0075 145.348 29.5589C146.149 32.5886 148.804 34.6816 151.96 34.6816C156.623 34.6816 159.326 30.9048 159.326 25.3907C159.326 20.6178 156.773 16.4971 152.11 16.4971C149.103 16.4971 146.245 18.5841 145.444 21.8629C145.295 22.4084 145.145 23.0547 145.145 23.6001V27.7742V27.7683Z" fill="white"/>
<path d="M173.709 2.27322H169.297V37.5572H173.709V2.27322Z" fill="white"/>
<path d="M203.069 25.3314C203.069 34.2251 196.803 38.1027 190.992 38.1027C184.476 38.1027 179.371 33.3298 179.371 25.7287C179.371 17.7303 184.733 13.0049 191.399 13.0049C198.065 13.0049 203.075 18.0268 203.075 25.3314M183.884 25.5805C183.884 30.8455 186.891 34.8239 191.202 34.8239C195.512 34.8239 198.567 30.8989 198.567 25.4797C198.567 21.4064 196.51 16.2837 191.303 16.2837C186.096 16.2837 183.884 21.0566 183.884 25.5745" fill="white"/>
<path d="M229.373 34.0294C229.373 39.5968 228.219 42.923 225.912 45.0575C223.508 47.1979 220.101 47.9391 217.046 47.9391C213.991 47.9391 210.93 47.2454 208.981 45.9528L210.087 42.5732C211.689 43.6167 214.194 44.512 217.201 44.512C221.709 44.512 225.015 42.176 225.015 36.0631V33.4306H224.913C223.61 35.6658 220.956 37.4564 217.201 37.4564C211.187 37.4564 206.877 32.3871 206.877 25.7287C206.877 17.5762 212.239 13.0049 217.853 13.0049C222.062 13.0049 224.315 15.1453 225.421 17.1315H225.523L225.672 13.5029H229.582C229.433 15.1927 229.385 17.1789 229.385 20.0605V34.0235L229.373 34.0294ZM224.961 22.9954C224.961 22.2483 224.907 21.608 224.71 21.0566C223.909 18.4715 221.804 16.3844 218.546 16.3844C214.338 16.3844 211.331 19.9123 211.331 25.4797C211.331 30.1992 213.782 34.1302 218.492 34.1302C221.248 34.1302 223.706 32.4404 224.608 29.6597C224.859 28.9126 224.961 28.0707 224.961 27.3236V22.9954Z" fill="white"/>
<path d="M241.246 6.74968C241.246 8.23788 240.194 9.43556 238.442 9.43556C236.84 9.43556 235.788 8.24381 235.788 6.74968C235.788 5.25555 236.894 4.01637 238.544 4.01637C240.194 4.01637 241.246 5.20812 241.246 6.74968ZM236.338 13.5088H240.75V37.5631H236.338V13.5029V13.5088Z" fill="white"/>
<path d="M250.118 13.5029L253.573 18.6731C254.524 20.013 255.277 21.2048 256.078 22.5507H256.174C256.975 21.1574 257.776 19.9182 258.631 18.6256L261.984 13.5088H266.797L258.529 25.1358L267 37.5572H262.038L258.433 32.138C257.483 30.7447 256.682 29.4047 255.827 27.964H255.725C254.924 29.4047 254.123 30.6973 253.172 32.138L249.663 37.5572H244.803L253.424 25.284L245.203 13.5088H250.112L250.118 13.5029Z" fill="white"/>
<path d="M25.5439 0.1091C11.6205 0.1091 0.333496 11.3032 0.333496 25.1061C0.333496 38.9091 11.6205 50.1091 25.5439 50.1091C39.4672 50.1091 50.7542 38.915 50.7542 25.1061C50.7542 11.2973 39.4613 0.1091 25.5439 0.1091ZM15.339 6.68446L9.53405 18.6494H5.37318C7.04709 13.5148 10.652 9.24582 15.339 6.68446ZM25.5439 46.1307C13.8384 46.1307 4.34491 36.7212 4.34491 25.1061C4.34491 24.2405 4.4047 23.3926 4.50633 22.5566H12.1047L18.0172 10.3664L26.2194 46.1129L25.5439 46.1307ZM20.827 4.61521C22.3455 4.27132 23.9237 4.08752 25.5439 4.08752C35.0194 4.08752 43.0363 10.2538 45.7504 18.7561H32.395L28.3297 37.3319L20.827 4.61521ZM30.6672 45.5081L35.671 22.6396H46.5933C46.689 23.4519 46.7428 24.2701 46.7428 25.1121C46.7428 34.9721 39.9037 43.2373 30.6672 45.5141" fill="white"/>
</svg>
