<svg viewBox="0 0 1000 1000" xmlns="http://www.w3.org/2000/svg">
  <rect x="0" y="0" width="1000" height="1000" fill="#000000"/>
  <path fill-rule="evenodd" fill="#ffffff" d="M0.00,500.00L0.00,0.00 L500.00,0.00L1000.00,0.00 L1000.00,500.00L1000.00,1000.00 L500.00,1000.00L0.00,1000.00 L0.00,500.00Z M660.74,877.45C671.57,873.04 677.50,865.64 681.55,851.50C684.69,840.51 686.17,820.62 686.85,780.50L687.50,741.50 L724.79,741.00C756.48,740.58 762.21,740.27 763.01,739.00C764.02,737.38 764.37,580.12 763.37,577.52C762.86,576.20 757.97,576.00 726.14,575.98C705.99,575.98 688.95,575.62 688.27,575.19C687.35,574.61 686.94,565.05 686.62,536.96C686.07,487.50 684.28,471.89 677.62,458.12C674.89,452.48 667.81,445.34 663.71,444.10C661.94,443.56 658.70,442.44 656.50,441.60C654.20,440.73 649.32,440.09 645.00,440.10C629.28,440.14 615.09,444.98 609.37,452.26C607.64,454.46 606.74,456.15 602.46,465.29C601.61,467.10 600.21,471.71 599.36,475.54C598.50,479.37 597.34,484.52 596.78,487.00C595.36,493.25 594.54,786.74 595.86,815.68C596.55,830.83 597.33,838.84 598.43,841.88C599.29,844.28 600.02,847.21 600.03,848.38C600.05,849.54 600.94,852.30 602.00,854.50C603.06,856.70 603.95,859.22 603.97,860.09C603.98,860.97 606.81,864.66 610.25,868.29C614.84,873.13 617.96,875.46 622.00,877.04C632.78,881.27 650.86,881.46 660.74,877.45Z M379.00,596.96C380.93,596.48 383.74,595.84 385.25,595.53C389.02,594.75 398.40,585.12 401.04,579.29C409.01,561.74 407.18,527.52 396.80,500.00C396.08,498.07 395.20,496.05 394.85,495.50C394.50,494.95 392.52,491.35 390.45,487.50C388.38,483.65 385.29,478.56 383.59,476.19C372.14,460.25 347.94,435.75 324.02,415.88C320.46,412.92 316.84,409.82 315.98,409.00C315.11,408.18 311.52,405.02 308.00,402.00C304.48,398.98 300.88,395.81 300.01,394.97C299.15,394.12 295.52,391.03 291.97,388.09C283.51,381.09 257.66,357.54 253.18,352.75C251.25,350.69 248.85,349.00 247.84,349.00C246.07,349.00 246.00,351.69 246.00,418.46C246.00,484.55 246.09,487.98 247.82,488.90C248.95,489.51 251.10,489.53 253.57,488.96C255.73,488.46 259.07,488.04 261.00,488.03C262.93,488.02 269.45,487.14 275.50,486.08C295.18,482.64 308.92,480.76 310.35,481.30C311.44,481.72 311.86,485.62 312.26,499.17C312.78,516.38 314.59,531.53 317.63,544.00C318.50,547.58 319.60,552.39 320.07,554.70C320.54,557.01 321.35,559.71 321.87,560.70C322.40,561.69 324.07,565.20 325.59,568.50C330.76,579.73 338.35,588.18 347.83,593.27C356.42,597.88 369.22,599.39 379.00,596.96Z M505.55,389.86C518.03,376.87 529.51,369.36 554.11,358.11C556.64,356.95 559.70,356.00 560.91,356.00C562.11,356.00 564.42,355.32 566.04,354.48C570.19,352.33 587.02,349.15 609.00,346.36C627.78,343.97 660.14,343.96 678.00,346.35C693.99,348.48 709.28,351.50 717.25,354.12C720.42,355.15 723.52,356.00 724.14,356.00C724.77,356.00 727.13,356.85 729.39,357.88C731.65,358.91 735.98,360.81 739.00,362.10C742.02,363.38 745.57,365.24 746.88,366.22C748.20,367.20 749.82,368.00 750.49,368.00C751.16,368.00 753.83,369.61 756.41,371.59C758.99,373.56 761.76,374.92 762.55,374.62C763.80,374.14 763.99,355.72 763.96,238.34C763.93,142.46 763.60,102.23 762.84,101.30C761.37,99.54 514.04,99.36 512.28,101.12C511.07,102.33 511.56,104.59 513.53,107.00C514.21,107.83 515.09,109.62 515.49,111.00C515.88,112.38 517.01,115.30 517.98,117.50C521.47,125.37 523.78,132.42 527.17,145.50C527.74,147.70 529.06,152.65 530.11,156.50C531.15,160.35 532.00,164.71 532.00,166.18C532.00,167.66 532.70,172.16 533.56,176.18C535.36,184.66 537.21,214.09 536.01,215.35C534.93,216.48 522.97,218.71 513.86,219.47C509.81,219.81 499.98,220.95 492.00,222.00C453.32,227.08 445.29,228.06 442.61,228.03C441.03,228.01 433.93,228.95 426.84,230.10C411.61,232.58 411.00,232.37 411.00,224.65C411.00,218.70 408.39,190.23 407.04,181.50C403.15,156.31 396.98,144.42 384.84,138.72C381.66,137.23 377.73,136.56 370.14,136.23C360.87,135.81 359.23,136.01 354.64,138.08C343.18,143.23 335.36,154.05 330.82,171.00C328.36,180.23 328.18,199.48 330.49,208.00C331.31,211.03 332.00,214.62 332.02,216.00C332.05,217.38 332.94,220.30 334.00,222.50C335.06,224.70 335.95,227.32 335.97,228.33C335.98,229.33 337.88,233.38 340.17,237.33C352.85,259.12 373.08,279.91 425.01,324.50C430.13,328.90 435.04,333.20 435.91,334.05C436.79,334.91 445.15,342.42 454.50,350.74C471.50,365.88 483.10,377.76 492.50,389.67C495.25,393.15 497.98,396.00 498.58,396.00C499.17,396.00 502.31,393.24 505.55,389.86Z"/>
</svg>